# xmcd
#
# Track frame offsets: 
#        150
#        16504
#        35100
#        49213
#        72617
#        84087
#        97807
#        110088
#        131150
#        142320
#        153490
#        168745
#
# Disc length: 2520 seconds
#
# Revision: 0
# Processed by: cddbd v1.5.1PL0 Copyright (c) Steve Scherf et al.
# Submitted via: ExactAudioCopy v0.95b2
#
DISCID=a909d60c
DTITLE=Rolling Stones - Weeksi's Hot Rocks Live 1965-2002 I
DYEAR=2002
DGENRE=Rock and Roll
TTITLE0=01 Time Is On My Side
TTITLE1=02 Heart Of Stone
TTITLE2=03 Play With Fire
TTITLE3=04 (I Can't Get No) Satisfaction
TTITLE4=05 As Tears Go By
TTITLE5=06 Get Off Of My Cloud
TTITLE6=07 Mother's Little Helper
TTITLE7=08 19th Nervous Breakdown
TTITLE8=09 Paint It Black
TTITLE9=10 Under My Thumb
TTITLE10=11 Ruby Tuesday
TTITLE11=12 Let's Spend The Night Together
EXTD=A live compilation I put together for friends.  Not for sale.
EXTT0=
EXTT1=
EXTT2=
EXTT3=
EXTT4=
EXTT5=
EXTT6=
EXTT7=
EXTT8=
EXTT9=
EXTT10=
EXTT11=
PLAYORDER=
